<svg xmlns="http://www.w3.org/2000/svg" viewBox="0 0 304.21 103.6"><defs><style>.cls-1{fill:#f2f2f2;}</style></defs><title>Asset 5</title><g id="Layer_2" data-name="Layer 2"><g id="Layer_1-2" data-name="Layer 1"><path class="cls-1" d="M156.08,19.29h-2a10,10,0,0,0-20-.37v0c0,.14,0,.28,0,.42s0,.28,0,.42V26h0V51.77h-2V19.42h0v-.06a12,12,0,0,1,24-.07Z"/><path class="cls-1" d="M138.2,19.29V31.61h11.73v2H138.2v2h11.73v2H138.2V51.77h-2V19.42h0v-.1a8,8,0,0,1,16,0h-2a6,6,0,0,0-11.94,0Z"/><path class="cls-1" d="M134.12,18.92v0Z"/><path class="cls-1" d="M129.78,39.86h-2a10,10,0,0,1-20,.38v0c0-.14,0-.28,0-.42s0-.28,0-.42V33.19h0V7.38h-2V39.73h0a.13.13,0,0,0,0,.06,12,12,0,0,0,24,.07Z"/><path class="cls-1" d="M125.84,39.86h-2a6,6,0,1,1-11.93,0V7.38h-2.06V39.73h0v.1a8,8,0,0,0,16,0Z"/><path class="cls-1" d="M156.08,63.85h-2a10,10,0,0,0-20-.38v0c0,.14,0,.28,0,.42s0,.28,0,.42v32h-2V64h0v-.07a12,12,0,0,1,24-.06Z"/><path class="cls-1" d="M138.2,63.84V76.15h11.73v2H138.2v2h11.73v2.06H138.2V96.29h-2V64h0v-.11a8,8,0,0,1,16,0h-2a6,6,0,0,0-11.94,0Z"/><path class="cls-1" d="M134.12,63.47v0Z"/><path class="cls-1" d="M129.78,84.39h-2a10,10,0,0,1-20,.38v0c0-.14,0-.27,0-.41s0-.29,0-.43V77.73h0V52h-2V84.26h0a.15.15,0,0,0,0,.07,12,12,0,0,0,24,.06Z"/><path class="cls-1" d="M125.84,84.39h-2a6,6,0,0,1-11.93,0V52h-2.06V84.26h0v.1a8,8,0,0,0,16,0Z"/><path class="cls-1" d="M208.82,19.23h-2a10,10,0,0,0-20-.38v0c0,.14,0,.28,0,.42s0,.29,0,.43V25.9h0V51.71h-2V19.36h0v-.07a12,12,0,0,1,23.95-.06Z"/><path class="cls-1" d="M190.94,19.23V31.54h11.73v2H190.94v2h11.73v2.06H190.94V51.71h-2.05V19.36h0v-.11a8,8,0,0,1,16,0h-2a6,6,0,1,0-11.94,0Z"/><path class="cls-1" d="M186.86,18.85v0Z"/><path class="cls-1" d="M182.52,39.79h-2a10,10,0,0,1-20,.38v0c0-.14,0-.28,0-.42s0-.28,0-.42v-32h-2V39.66h0v.07a12,12,0,0,0,24,.06Z"/><path class="cls-1" d="M178.58,39.79h-2a6,6,0,1,1-11.93,0V7.32h-2.06V39.66h0v.11a8,8,0,0,0,16,0Z"/><path class="cls-1" d="M208.82,63.78h-2a10,10,0,0,0-20-.38v0c0,.13,0,.27,0,.41s0,.29,0,.43v6.17h0V96.22h-2V63.91h0v-.07a12,12,0,0,1,23.95-.06Z"/><path class="cls-1" d="M190.94,63.78v12.3h11.73v2H190.94v2h11.73v2.05H190.94V96.22h-2.05V63.91h0v-.1a8,8,0,0,1,16,0h-2a6,6,0,0,0-11.94,0Z"/><path class="cls-1" d="M186.86,63.4v0Z"/><path class="cls-1" d="M182.52,84.32h-2a10,10,0,0,1-20,.38v0c0-.14,0-.28,0-.42s0-.28,0-.42V77.66h0V51.88h-2V84.19h0v.07a12,12,0,0,0,24,.06Z"/><path class="cls-1" d="M178.58,84.32h-2a6,6,0,0,1-11.93,0V51.88h-2.06V84.19h0v.11a8,8,0,0,0,16,0Z"/><polygon class="cls-1" points="89.72 3.07 4.96 52.01 89.72 100.95 89.72 103.6 0 51.8 89.72 0 89.72 3.07"/><polygon class="cls-1" points="214.49 3.07 299.26 52.01 214.49 100.95 214.49 103.6 304.21 51.8 214.49 0 214.49 3.07"/></g></g></svg>